<svg width="120" height="86" viewBox="0 0 120 86" fill="none" xmlns="http://www.w3.org/2000/svg">
<path fill-rule="evenodd" clip-rule="evenodd" d="M54.7233 52.8539V54.4519H51.7558V57.0044L51.9703 57.0396C52.0876 57.0595 52.7559 57.0747 53.4535 57.0759H54.7233V68.7172H57.5759V57.0759H58.8245C59.5104 57.0759 60.1529 57.0595 60.2514 57.0407L60.4296 57.0056V54.4519H57.4059V51.257H54.7244V52.8551L54.7233 52.8539Z" fill="#2B2A29"/>
<path fill-rule="evenodd" clip-rule="evenodd" d="M78.4974 54.2878C76.6261 54.5281 74.8827 55.5306 73.7184 57.0349C72.9423 58.0385 72.5131 59.0327 72.2763 60.3717L72.2435 60.5569H75.245L75.347 60.2286C75.5498 59.5768 75.8875 59.0245 76.4045 58.4993C77.1819 57.7102 77.9932 57.3092 79.0684 57.1826C79.9723 57.0759 80.9584 57.2752 81.7005 57.7137C82.1719 57.9928 82.9304 58.7408 83.2329 59.225C84.1861 60.7551 84.0607 62.9229 82.9328 64.3885C81.3206 66.4849 78.4036 66.6631 76.5194 64.7789C75.9813 64.2396 75.6319 63.6663 75.3493 62.8526C75.3306 62.7975 74.9706 62.7811 73.8099 62.7811C72.3197 62.7811 72.2962 62.7822 72.2962 62.8983C72.2962 63.2372 72.6738 64.4237 72.968 65.0087C73.9834 67.0265 75.8535 68.4616 78.0307 68.8919C78.5642 68.9974 80.4718 68.9986 80.9408 68.8919C82.4544 68.5519 83.5788 67.9375 84.6528 66.8624C86.1277 65.3863 86.8031 63.7085 86.8019 61.523C86.8019 59.497 86.0785 57.7735 84.6258 56.329C83.2376 54.9479 81.4191 54.2045 79.4857 54.2268C79.1563 54.2303 78.7108 54.2561 78.495 54.2843L78.4974 54.2878Z" fill="#2B2A29"/>
<path fill-rule="evenodd" clip-rule="evenodd" d="M107.82 54.2843C106.811 54.4203 105.583 54.867 104.842 55.37C103.77 56.0981 102.801 57.1943 102.228 58.3328C101.291 60.1911 101.225 62.5055 102.052 64.5304C102.828 66.4344 104.501 68.002 106.459 68.6574C107.289 68.9353 107.956 69.0197 109.076 68.9869C109.912 68.9623 110.138 68.9341 110.715 68.7864C112.516 68.3209 113.969 67.2434 115.037 65.5809C115.774 64.4331 116.124 63.182 116.124 61.6883V61.1302H107.222V63.5842H112.768L112.585 63.9125C112.336 64.3592 111.96 64.8129 111.571 65.1424C111.153 65.4953 110.328 65.9045 109.819 66.01C109.291 66.1202 108.401 66.1167 107.891 66.003C106.369 65.6641 105.093 64.4284 104.643 62.8584C104.46 62.2195 104.46 61.0107 104.643 60.3705C104.881 59.538 105.273 58.9131 105.956 58.2694C106.459 57.7969 106.96 57.505 107.622 57.2975C107.986 57.1837 108.167 57.165 108.821 57.1673C109.674 57.1709 110.077 57.2517 110.689 57.5425C111.083 57.7301 111.67 58.1768 111.919 58.4805L112.081 58.6763H113.789C114.914 58.6763 115.497 58.6564 115.497 58.6177C115.497 58.586 115.391 58.348 115.262 58.0901C114.25 56.0641 112.719 54.8423 110.617 54.3863C110.019 54.2561 108.457 54.1998 107.82 54.2854V54.2843Z" fill="#2B2A29"/>
<path fill-rule="evenodd" clip-rule="evenodd" d="M48.2644 54.3992C46.7965 54.6149 45.6826 55.3348 45.0073 56.5061C44.6509 57.124 44.4058 58.3387 44.4844 59.0996C44.5817 60.0434 44.8537 60.6332 45.4727 61.2428C46.161 61.9217 46.936 62.3109 48.418 62.7225C49.7968 63.107 50.478 63.5045 50.7992 64.1118C50.981 64.4554 50.9774 65.092 50.791 65.5094C50.5964 65.9456 50.1907 66.2903 49.6924 66.4415C49.1343 66.6115 48.3722 66.5775 47.9619 66.3641C47.3581 66.0511 47.0216 65.5153 46.9747 64.7942L46.9477 64.3803H43.979L44.013 64.9079C44.1057 66.343 44.8255 67.5976 45.9851 68.3432C46.8211 68.8802 47.4577 69.0608 48.6654 69.1006C49.6608 69.1335 50.1532 69.0737 50.9294 68.8263C52.1077 68.4488 53.0163 67.6714 53.5568 66.5763C53.8558 65.9702 53.9637 65.5786 54.0434 64.813C54.1841 63.4623 53.8324 62.3813 53.0058 61.6157C52.3293 60.9896 51.5942 60.6507 50.0348 60.2498C48.0779 59.7468 47.5808 59.4501 47.4179 58.6892C47.276 58.0279 47.5937 57.3503 48.187 57.0478C48.5106 56.8836 48.5563 56.8754 49.1859 56.8836C49.7933 56.8907 50.3596 56.9903 50.7441 57.158C50.8379 57.199 50.8438 57.1134 50.8438 55.8061V54.4109L50.3209 54.3734C49.6479 54.3253 48.6782 54.3371 48.2644 54.398V54.3992Z" fill="#2B2A29"/>
<path fill-rule="evenodd" clip-rule="evenodd" d="M33.0223 54.9796C31.2308 58.2859 25.6792 68.6727 25.6792 68.7173C25.6792 68.7572 26.1482 68.7724 27.1143 68.7619L28.5494 68.7466L30.94 64.3522C32.2543 61.9358 33.367 59.8946 33.4127 59.816C33.4843 59.6917 33.4913 60.0141 33.4667 62.3837C33.4514 63.8739 33.4256 65.9222 33.4092 66.9352L33.3787 68.7771L34.6766 68.7619L35.9746 68.7466L37.8986 64.752C38.9573 62.5549 39.941 60.5265 40.0852 60.2439L40.3467 59.7304L40.3173 61.5278C40.3009 62.5162 40.2704 64.5516 40.2505 66.05L40.213 68.7747H43.0832V54.5071L41.6516 54.5223L40.22 54.5376L38.1037 58.8593C36.9395 61.237 35.9792 63.1727 35.9699 63.1634C35.9593 63.1528 35.9898 61.2851 36.0367 59.0117C36.0836 56.7383 36.1223 54.7955 36.1223 54.6935V54.5083H34.7013H33.2791L33.0235 54.9796H33.0223Z" fill="#2B2A29"/>
<path fill-rule="evenodd" clip-rule="evenodd" d="M61.4568 61.6133V68.7172H64.3094V56.8308L65.265 56.8672C66.5946 56.9188 67.1984 57.0794 67.6756 57.5109C68.3955 58.1616 68.4939 59.5416 67.8772 60.3506L67.7201 60.5569H70.8682L70.9244 60.3423C71.1109 59.6377 71.1472 58.7548 71.0194 58.0455C70.7193 56.3876 69.5656 55.1683 67.896 54.7415C67.1831 54.5598 66.2956 54.5082 63.81 54.5082H61.4557V61.6121L61.4568 61.6133Z" fill="#2B2A29"/>
<path fill-rule="evenodd" clip-rule="evenodd" d="M88.5042 61.6133V68.7172H89.9018H91.2994L91.3146 64.1317L91.3287 59.5474L94.2317 64.1317L97.1359 68.7172H98.4689H99.8032V61.6133V54.5082H98.4056H97.0081L96.9928 58.9717L96.9776 63.4353L94.0968 58.9753L91.2149 54.5141L89.8596 54.5105L88.5042 54.5082V61.6133Z" fill="#2B2A29"/>
<path fill-rule="evenodd" clip-rule="evenodd" d="M30.288 54.5223C29.5306 54.5141 28.8916 54.527 28.8693 54.5504C28.8471 54.575 27.385 57.233 25.6205 60.4584L22.4114 66.3231L22.089 65.8224C21.912 65.5469 21.477 64.8727 21.1229 64.3228C20.7688 63.7741 20.4839 63.2981 20.4898 63.2676C20.4956 63.236 20.6481 63.1703 20.8286 63.1199C22.1418 62.76 23.2134 61.6614 23.6038 60.2708C23.6847 59.9812 23.7082 59.694 23.7094 58.9588C23.7094 57.8954 23.6296 57.5214 23.2357 56.7617C22.9215 56.1567 22.2039 55.4637 21.5333 55.119C20.5214 54.5996 19.7664 54.5082 16.4776 54.5082H14.1526V61.6121V68.716H16.9478L16.963 65.4976L16.9783 62.2792L18.7663 65.4988L20.5543 68.7184L22.2368 68.7031L23.9192 68.6879L27.793 61.6121L31.6668 54.5363L30.2892 54.5211L30.288 54.5223ZM17.6806 61.3952L16.9478 61.4304V56.8308L17.9033 56.8648C18.581 56.8895 18.9867 56.9317 19.2962 57.0126C20.0912 57.2189 20.4898 57.5144 20.763 58.0983C20.8943 58.3797 20.9119 58.4887 20.9119 59.0163C20.9119 59.5545 20.8943 59.6518 20.7477 59.9707C20.3292 60.8817 19.3982 61.3131 17.6794 61.3952H17.6806Z" fill="#2B2A29"/>
<path fill-rule="evenodd" clip-rule="evenodd" d="M10.8744 61.6134L8.16721 54.5376L6.93613 54.5223L5.70505 54.5071L5.6558 54.6361C5.62884 54.7076 4.40596 57.8592 2.93687 61.6415C1.46895 65.4239 0.255458 68.5625 0.241388 68.6188C0.216767 68.7138 0.303529 68.7185 1.68234 68.7044L3.15026 68.6892L3.36247 68.1182C3.47972 67.804 3.72359 67.1427 3.90649 66.6479L4.23713 65.7486L6.83881 65.7639L9.4405 65.7791L9.98687 67.2341L10.5332 68.6892L12.0574 68.7044C12.8957 68.7126 13.5816 68.7126 13.5816 68.7044C13.5816 68.6962 12.3634 65.5048 10.8744 61.6134ZM6.88571 63.0555C6.00754 63.0637 5.2771 63.0578 5.26186 63.0426C5.24661 63.0274 5.60187 62.0343 6.05209 60.8337C6.50232 59.6343 6.87868 58.6775 6.88923 58.7069C6.89978 58.7362 7.26324 59.7234 7.69588 60.8993L8.4826 63.0391L6.88571 63.0543V63.0555Z" fill="#2B2A29"/>
<path fill-rule="evenodd" clip-rule="evenodd" d="M64.6517 62.8315C64.6517 62.8902 67.8173 68.5965 67.8888 68.668C67.917 68.6962 68.6873 68.7114 69.6088 68.7044L71.2784 68.6891L69.5338 65.9819C68.5747 64.4929 67.8091 63.2583 67.8326 63.2396C67.856 63.2208 68.0565 63.1493 68.2781 63.0801C68.4997 63.0121 68.7307 62.9171 68.7916 62.8714C68.8901 62.7964 68.6627 62.787 66.7773 62.7858C65.6084 62.7858 64.6517 62.8057 64.6517 62.8327V62.8315Z" fill="#2B2A29"/>
<path fill-rule="evenodd" clip-rule="evenodd" d="M0 74.7941V77.1625H58.175H116.351V74.7941V72.4269H58.175H0V74.7941Z" fill="#E32329"/>
<path d="M0.433685 80.8088H1.38924C2.61211 80.8088 3.22414 81.4865 3.22414 82.8431C3.22414 83.5149 3.0682 84.0214 2.75515 84.3614C2.44211 84.7014 1.97899 84.8714 1.36579 84.8714H0.433685V80.8088ZM1.30717 84.4435C1.77263 84.4435 2.11499 84.318 2.33541 84.0683C2.55584 83.8185 2.66722 83.4316 2.66722 82.9075V82.7727C2.66722 82.2486 2.55701 81.8617 2.33541 81.612C2.11499 81.3622 1.77146 81.2368 1.30717 81.2368H0.973016V84.4435H1.30717Z" fill="#2B2A29"/>
<path d="M4.89489 84.971C4.42239 84.971 4.0601 84.787 3.80685 84.42C3.55477 84.053 3.42932 83.5266 3.42932 82.843C3.42932 82.1595 3.55595 81.6342 3.80685 81.2684C4.05893 80.9026 4.42122 80.7209 4.89489 80.7209C5.36857 80.7209 5.72969 80.905 5.98294 81.2719C6.23501 81.6389 6.36047 82.1654 6.36047 82.8489C6.36047 83.5324 6.23384 84.0577 5.98294 84.4223C5.73086 84.7881 5.36857 84.9699 4.89489 84.9699V84.971ZM4.89489 84.5021C5.50106 84.5021 5.80355 83.951 5.80355 82.8489C5.80355 81.7468 5.50106 81.1899 4.89489 81.1899C4.28873 81.1899 3.98624 81.7409 3.98624 82.843C3.98624 83.9452 4.28873 84.5021 4.89489 84.5021Z" fill="#2B2A29"/>
<path d="M9.87175 80.8088H11.1321C11.5073 80.8088 11.8086 80.9062 12.0373 81.102C12.2659 81.2978 12.3796 81.5569 12.3796 81.8805C12.3796 82.0833 12.3327 82.258 12.2389 82.4046C12.1451 82.5511 12.0103 82.6637 11.8344 82.741C12.0842 82.8149 12.2765 82.938 12.4089 83.108C12.5414 83.278 12.6083 83.4891 12.6083 83.7388C12.6083 84.0835 12.4887 84.3579 12.2507 84.5642C12.0127 84.7694 11.6937 84.8726 11.2951 84.8726H9.87057V80.81L9.87175 80.8088ZM11.0852 82.591C11.5894 82.591 11.8415 82.3647 11.8415 81.911C11.8415 81.6847 11.7782 81.5147 11.6515 81.4009C11.5249 81.2872 11.3397 81.2309 11.0981 81.2309H10.3829V82.591H11.0864H11.0852ZM11.2846 84.4493C11.804 84.4493 12.0642 84.2066 12.0642 83.7224C12.0642 83.4844 11.9974 83.3038 11.8649 83.1831C11.7324 83.0623 11.5366 83.0013 11.2787 83.0013H10.3818V84.4493H11.2846Z" fill="#2B2A29"/>
<path d="M14.3038 84.9652C13.8466 84.9652 13.5007 84.8351 13.2662 84.5748C13.0317 84.3145 12.9145 83.9311 12.9145 83.4223V80.8077H13.4538V83.4867C13.4538 83.8185 13.5265 84.0694 13.6707 84.2395C13.8149 84.4095 14.0259 84.4939 14.3038 84.4939C14.5817 84.4939 14.7927 84.4095 14.937 84.2395C15.0812 84.0694 15.1539 83.8185 15.1539 83.4867V80.8077H15.6932V83.4223C15.6932 83.9299 15.5759 84.3145 15.3414 84.5748C15.107 84.8351 14.7611 84.9652 14.3038 84.9652Z" fill="#2B2A29"/>
<path d="M17.2643 84.9593C17.0533 84.9593 16.8481 84.9359 16.6488 84.889C16.4495 84.8421 16.2736 84.7753 16.1212 84.6897V84.2676C16.3357 84.3579 16.5315 84.42 16.7074 84.4552C16.8833 84.4903 17.0685 84.5079 17.2643 84.5079C17.5656 84.5079 17.8037 84.4446 17.9795 84.318C18.1554 84.1914 18.2433 84.0178 18.2433 83.7998C18.2433 83.686 18.2269 83.5922 18.1941 83.5184C18.1612 83.4445 18.1015 83.3777 18.0159 83.3191C17.9303 83.2604 17.8025 83.1995 17.6348 83.1373L17.1482 82.9615C16.7578 82.8208 16.4835 82.6637 16.3275 82.489C16.1716 82.3154 16.093 82.0833 16.093 81.7949C16.093 81.4701 16.2197 81.211 16.4706 81.0152C16.7226 80.8194 17.0556 80.7221 17.4707 80.7221C17.8541 80.7221 18.2117 80.8006 18.5435 80.9566V81.3786C18.1413 81.2415 17.7837 81.1735 17.4707 81.1735C17.201 81.1735 16.9935 81.2262 16.8493 81.3317C16.7051 81.4373 16.6324 81.5897 16.6324 81.789C16.6324 81.9567 16.684 82.0903 16.7883 82.1876C16.8915 82.2849 17.0955 82.3893 17.4015 82.4983L17.8881 82.6742C18.2128 82.7879 18.4426 82.9298 18.5798 83.1022C18.717 83.2745 18.785 83.5043 18.785 83.7939C18.785 84.0319 18.7205 84.2394 18.5915 84.4153C18.4626 84.5912 18.2844 84.726 18.0581 84.8198C17.8318 84.9136 17.568 84.9605 17.2667 84.9605L17.2643 84.9593Z" fill="#2B2A29"/>
<path d="M19.4274 84.4317H20.3126V81.2485H19.4274V80.8088H21.7254V81.2485H20.8402V84.4317H21.7254V84.8714H19.4274V84.4317Z" fill="#2B2A29"/>
<path d="M22.3644 80.8088H22.8686L24.5686 84.0565V80.8088H25.0611V84.8714H24.551L22.8568 81.6237V84.8714H22.3644V80.8088Z" fill="#2B2A29"/>
<path d="M25.6827 80.8088H28.139V81.2485H26.222V82.5558H27.8048V82.9955H26.222V84.4317H28.139V84.8714H25.6827V80.8088Z" fill="#2B2A29"/>
<path d="M29.8097 84.9593C29.5987 84.9593 29.3935 84.9359 29.1942 84.889C28.9949 84.8421 28.819 84.7753 28.6666 84.6897V84.2676C28.8812 84.3579 29.077 84.42 29.2528 84.4552C29.4287 84.4903 29.6139 84.5079 29.8097 84.5079C30.1111 84.5079 30.3491 84.4446 30.5249 84.318C30.7008 84.1914 30.7887 84.0178 30.7887 83.7998C30.7887 83.686 30.7723 83.5922 30.7395 83.5184C30.7067 83.4445 30.6469 83.3777 30.5613 83.3191C30.4757 83.2604 30.3479 83.1995 30.1802 83.1373L29.6937 82.9615C29.3032 82.8208 29.0289 82.6637 28.8729 82.489C28.717 82.3154 28.6385 82.0833 28.6385 81.7949C28.6385 81.4701 28.7651 81.211 29.016 81.0152C29.2681 80.8194 29.601 80.7221 30.0161 80.7221C30.3995 80.7221 30.7571 80.8006 31.0889 80.9566V81.3786C30.6867 81.2415 30.3291 81.1735 30.0161 81.1735C29.7464 81.1735 29.5389 81.2262 29.3947 81.3317C29.2505 81.4373 29.1778 81.5897 29.1778 81.789C29.1778 81.9567 29.2294 82.0903 29.3337 82.1876C29.4369 82.2849 29.6409 82.3893 29.9469 82.4983L30.4335 82.6742C30.7583 82.7879 30.9881 82.9298 31.1252 83.1022C31.2624 83.2745 31.3304 83.5043 31.3304 83.7939C31.3304 84.0319 31.2659 84.2394 31.137 84.4153C31.008 84.5912 30.8298 84.726 30.6035 84.8198C30.3772 84.9136 30.1134 84.9605 29.8121 84.9605L29.8097 84.9593Z" fill="#2B2A29"/>
<path d="M32.9448 84.9593C32.7337 84.9593 32.5285 84.9359 32.3292 84.889C32.1299 84.8421 31.954 84.7753 31.8016 84.6897V84.2676C32.0162 84.3579 32.212 84.42 32.3879 84.4552C32.5637 84.4903 32.749 84.5079 32.9448 84.5079C33.2461 84.5079 33.4841 84.4446 33.66 84.318C33.8358 84.1914 33.9238 84.0178 33.9238 83.7998C33.9238 83.686 33.9074 83.5922 33.8745 83.5184C33.8417 83.4445 33.7819 83.3777 33.6963 83.3191C33.6107 83.2604 33.4829 83.1995 33.3153 83.1373L32.8287 82.9615C32.4383 82.8208 32.1639 82.6637 32.008 82.489C31.852 82.3154 31.7735 82.0833 31.7735 81.7949C31.7735 81.4701 31.9001 81.211 32.151 81.0152C32.4031 80.8194 32.7361 80.7221 33.1511 80.7221C33.5345 80.7221 33.8921 80.8006 34.2239 80.9566V81.3786C33.8218 81.2415 33.4642 81.1735 33.1511 81.1735C32.8815 81.1735 32.6739 81.2262 32.5297 81.3317C32.3855 81.4373 32.3128 81.5897 32.3128 81.789C32.3128 81.9567 32.3644 82.0903 32.4688 82.1876C32.5719 82.2849 32.7759 82.3893 33.0819 82.4983L33.5685 82.6742C33.8933 82.7879 34.1231 82.9298 34.2603 83.1022C34.3974 83.2745 34.4654 83.5043 34.4654 83.7939C34.4654 84.0319 34.401 84.2394 34.272 84.4153C34.143 84.5912 33.9648 84.726 33.7385 84.8198C33.5122 84.9136 33.2484 84.9605 32.9471 84.9605L32.9448 84.9593Z" fill="#2B2A29"/>
<path d="M38.2208 80.8088H38.7601V84.42H40.7064V84.8714H38.2208V80.8088Z" fill="#2B2A29"/>
<path d="M41.3806 84.4317H42.2658V81.2485H41.3806V80.8088H43.6786V81.2485H42.7934V84.4317H43.6786V84.8714H41.3806V84.4317Z" fill="#2B2A29"/>
<path d="M44.5813 80.8088H47.102V81.2485H45.1206V82.6144H46.762V83.0541H45.1206V84.8714H44.5813V80.8088Z" fill="#2B2A29"/>
<path d="M47.6355 80.8088H50.0918V81.2485H48.1749V82.5558H49.7577V82.9955H48.1749V84.4317H50.0918V84.8714H47.6355V80.8088Z" fill="#2B2A29"/>
<path d="M50.7659 80.8088H51.3052V84.42H53.2515V84.8714H50.7659V80.8088Z" fill="#2B2A29"/>
<path d="M55.0749 84.971C54.6024 84.971 54.2402 84.787 53.9869 84.42C53.7348 84.053 53.6094 83.5266 53.6094 82.843C53.6094 82.1595 53.736 81.6342 53.9869 81.2684C54.239 80.9026 54.6013 80.7209 55.0749 80.7209C55.5486 80.7209 55.9097 80.905 56.163 81.2719C56.4151 81.6389 56.5405 82.1654 56.5405 82.8489C56.5405 83.5324 56.4139 84.0577 56.163 84.4223C55.9109 84.7881 55.5486 84.9699 55.0749 84.9699V84.971ZM55.0749 84.5021C55.6811 84.5021 55.9836 83.951 55.9836 82.8489C55.9836 81.7468 55.6811 81.1899 55.0749 81.1899C54.4688 81.1899 54.1663 81.7409 54.1663 82.843C54.1663 83.9452 54.4688 84.5021 55.0749 84.5021Z" fill="#2B2A29"/>
<path d="M56.863 80.8088H57.3672L59.0672 84.0565V80.8088H59.5597V84.8714H59.0496L57.3554 81.6237V84.8714H56.863V80.8088Z" fill="#2B2A29"/>
<path d="M61.576 84.9359C61.0367 84.9359 60.6275 84.76 60.3472 84.4083C60.067 84.0565 59.9287 83.543 59.9287 82.8665C59.9287 82.19 60.0752 81.6694 60.3684 81.3048C60.6615 80.9401 61.0777 80.7561 61.617 80.7561C61.7964 80.7561 61.9746 80.7772 62.1505 80.8182C62.3264 80.8592 62.4788 80.9167 62.6077 80.9906V81.4244C62.4553 81.3622 62.2959 81.313 62.1294 81.2778C61.9629 81.2426 61.8117 81.225 61.6745 81.225C60.8807 81.225 60.4844 81.7468 60.4844 82.7903V82.9193C60.4844 83.4433 60.577 83.8314 60.7635 84.0859C60.9487 84.3403 61.2348 84.4669 61.6217 84.4669C61.848 84.4669 62.0579 84.4341 62.249 84.3672V83.1713H61.4283V82.7317H62.7473V84.6604C62.5984 84.7424 62.4155 84.8093 62.1997 84.8597C61.9828 84.9101 61.7753 84.9359 61.5748 84.9359H61.576Z" fill="#2B2A29"/>
<path d="M64.255 84.0272H64.5247C64.6419 84.0272 64.7275 84.046 64.7803 84.0823C64.833 84.1198 64.8588 84.1796 64.8588 84.2617C64.8588 84.4106 64.7627 84.6287 64.5716 84.9183L64.0029 85.7859H63.5867L64.255 84.0272Z" fill="#2B2A29"/>
<path d="M69.2674 80.8088H69.8536L70.645 84.209L71.3426 80.9319H71.9406L72.6265 84.2207L73.4414 80.8088H74.0041L72.9196 84.8714H72.3158L71.6358 81.6999L70.9499 84.8714H70.3461L69.2674 80.8088Z" fill="#2B2A29"/>
<path d="M74.5025 84.4317H75.3877V81.2485H74.5025V80.8088H76.8005V81.2485H75.9153V84.4317H76.8005V84.8714H74.5025V84.4317Z" fill="#2B2A29"/>
<path d="M78.5179 81.2602H77.2927V80.8088H80.2825V81.2602H79.0573V84.8714H78.5179V81.2602Z" fill="#2B2A29"/>
<path d="M80.5993 80.8088H81.1386V82.5734H82.7097V80.8088H83.249V84.8714H82.7097V83.0131H81.1386V84.8714H80.5993V80.8088Z" fill="#2B2A29"/>
<path d="M87.8975 80.8088H88.4896L89.8086 84.8714H89.2634L88.9351 83.7986H87.4285L87.1061 84.8714H86.5785L87.8975 80.8088ZM88.8003 83.3589L88.1789 81.3071L87.5575 83.3589H88.8003Z" fill="#2B2A29"/>
<path d="M90.0784 80.8088H91.3681C91.755 80.8088 92.0645 80.9179 92.2967 81.1371C92.5288 81.3564 92.6461 81.6495 92.6461 82.0165C92.6461 82.2627 92.5839 82.4831 92.4585 82.6754C92.333 82.8688 92.1595 83.0142 91.9367 83.1127L92.8337 84.8714H92.2474L91.4502 83.2417C91.3411 83.2499 91.2532 83.2534 91.1864 83.2534H90.6001V84.8714H90.0784V80.8088ZM91.2977 82.8196C91.5592 82.8196 91.7585 82.7516 91.8957 82.6144C92.0329 82.4772 92.1009 82.2779 92.1009 82.0165C92.1009 81.755 92.0352 81.5698 91.9051 81.4396C91.7738 81.3083 91.5815 81.2438 91.3282 81.2438H90.6013V82.8208H91.2989L91.2977 82.8196Z" fill="#2B2A29"/>
<path d="M93.5139 80.8088H94.1178L95.3606 83.5876L96.5917 80.8088H97.1779V84.8714H96.6796V81.694L95.6068 84.1152H95.0909L94.0122 81.694V84.8714H93.5139V80.8088Z" fill="#2B2A29"/>
<path d="M99.1886 84.9593C98.9775 84.9593 98.7723 84.9359 98.573 84.889C98.3737 84.8421 98.1978 84.7753 98.0454 84.6897V84.2676C98.26 84.3579 98.4558 84.42 98.6316 84.4552C98.8075 84.4903 98.9928 84.5079 99.1886 84.5079C99.4899 84.5079 99.7279 84.4446 99.9038 84.318C100.08 84.1914 100.168 84.0178 100.168 83.7998C100.168 83.686 100.151 83.5922 100.118 83.5184C100.085 83.4445 100.026 83.3777 99.9401 83.3191C99.8545 83.2604 99.7267 83.1995 99.5591 83.1373L99.0725 82.9615C98.6821 82.8208 98.4077 82.6637 98.2518 82.489C98.0958 82.3154 98.0173 82.0833 98.0173 81.7949C98.0173 81.4701 98.1439 81.211 98.3948 81.0152C98.6469 80.8194 98.9799 80.7221 99.3949 80.7221C99.7783 80.7221 100.136 80.8006 100.468 80.9566V81.3786C100.066 81.2415 99.708 81.1735 99.3949 81.1735C99.1252 81.1735 98.9177 81.2262 98.7735 81.3317C98.6293 81.4373 98.5566 81.5897 98.5566 81.789C98.5566 81.9567 98.6082 82.0903 98.7125 82.1876C98.8157 82.2849 99.0197 82.3893 99.3257 82.4983L99.8123 82.6742C100.137 82.7879 100.367 82.9298 100.504 83.1022C100.641 83.2745 100.709 83.5043 100.709 83.7939C100.709 84.0319 100.645 84.2394 100.516 84.4153C100.387 84.5912 100.209 84.726 99.9823 84.8198C99.756 84.9136 99.4922 84.9605 99.1909 84.9605L99.1886 84.9593Z" fill="#2B2A29"/>
<path d="M102.231 81.2602H101.006V80.8088H103.996V81.2602H102.77V84.8714H102.231V81.2602Z" fill="#2B2A29"/>
<path d="M104.381 80.8088H105.671C106.058 80.8088 106.367 80.9179 106.599 81.1371C106.832 81.3564 106.949 81.6495 106.949 82.0165C106.949 82.2627 106.887 82.4831 106.761 82.6754C106.636 82.8688 106.462 83.0142 106.239 83.1127L107.136 84.8714H106.55L105.753 83.2417C105.644 83.2499 105.556 83.2534 105.489 83.2534H104.903V84.8714H104.381V80.8088ZM105.602 82.8196C105.863 82.8196 106.062 82.7516 106.2 82.6144C106.337 82.4772 106.405 82.2779 106.405 82.0165C106.405 81.755 106.339 81.5698 106.209 81.4396C106.078 81.3083 105.885 81.2438 105.632 81.2438H104.905V82.8208H105.603L105.602 82.8196Z" fill="#2B2A29"/>
<path d="M108.773 84.971C108.301 84.971 107.939 84.787 107.685 84.42C107.433 84.053 107.308 83.5266 107.308 82.843C107.308 82.1595 107.434 81.6342 107.685 81.2684C107.937 80.9026 108.3 80.7209 108.773 80.7209C109.247 80.7209 109.608 80.905 109.861 81.2719C110.113 81.6389 110.239 82.1654 110.239 82.8489C110.239 83.5324 110.112 84.0577 109.861 84.4223C109.609 84.7881 109.247 84.9699 108.773 84.9699V84.971ZM108.773 84.5021C109.379 84.5021 109.682 83.951 109.682 82.8489C109.682 81.7468 109.379 81.1899 108.773 81.1899C108.167 81.1899 107.865 81.7409 107.865 82.843C107.865 83.9452 108.167 84.5021 108.773 84.5021Z" fill="#2B2A29"/>
<path d="M110.56 80.8088H111.065L112.765 84.0565V80.8088H113.257V84.8714H112.747L111.053 81.6237V84.8714H110.56V80.8088Z" fill="#2B2A29"/>
<path d="M115.273 84.9359C114.734 84.9359 114.325 84.76 114.045 84.4083C113.764 84.0565 113.626 83.543 113.626 82.8665C113.626 82.19 113.773 81.6694 114.066 81.3048C114.359 80.9401 114.775 80.7561 115.314 80.7561C115.494 80.7561 115.672 80.7772 115.848 80.8182C116.024 80.8592 116.176 80.9167 116.305 80.9906V81.4244C116.153 81.3622 115.993 81.313 115.827 81.2778C115.66 81.2426 115.509 81.225 115.372 81.225C114.578 81.225 114.182 81.7468 114.182 82.7903V82.9193C114.182 83.4433 114.274 83.8314 114.461 84.0859C114.646 84.3403 114.932 84.4669 115.319 84.4669C115.545 84.4669 115.755 84.4341 115.946 84.3672V83.1713H115.126V82.7317H116.445V84.6604C116.296 84.7424 116.113 84.8093 115.897 84.8597C115.68 84.9101 115.473 84.9359 115.272 84.9359H115.273Z" fill="#2B2A29"/>
<path d="M118.337 53.8118C118.616 53.8118 118.89 53.8833 119.156 54.0263C119.422 54.1694 119.629 54.3746 119.777 54.6419C119.925 54.9092 120 55.1871 120 55.4767C120 55.7663 119.927 56.0395 119.781 56.3033C119.634 56.5682 119.429 56.7734 119.165 56.92C118.901 57.0665 118.626 57.1392 118.337 57.1392C118.049 57.1392 117.773 57.0665 117.51 56.92C117.246 56.7734 117.041 56.5682 116.893 56.3033C116.746 56.0383 116.672 55.7628 116.672 55.4767C116.672 55.1906 116.748 54.9092 116.896 54.6419C117.045 54.3746 117.253 54.1706 117.519 54.0263C117.785 53.8833 118.057 53.8118 118.337 53.8118ZM118.337 54.0873C118.104 54.0873 117.877 54.1471 117.655 54.2667C117.433 54.3863 117.261 54.5575 117.136 54.7802C117.01 55.003 116.948 55.2351 116.948 55.4755C116.948 55.7159 117.009 55.9445 117.132 56.1649C117.255 56.3853 117.426 56.5565 117.647 56.6784C117.867 56.8015 118.097 56.8625 118.337 56.8625C118.578 56.8625 118.806 56.8015 119.028 56.6784C119.248 56.5553 119.42 56.3842 119.541 56.1649C119.663 55.9457 119.724 55.7159 119.724 55.4755C119.724 55.2351 119.662 55.003 119.538 54.7802C119.414 54.5575 119.24 54.3863 119.019 54.2667C118.797 54.1471 118.57 54.0873 118.337 54.0873ZM117.607 56.3959V54.6055H118.222C118.432 54.6055 118.585 54.622 118.679 54.6548C118.772 54.6876 118.847 54.7451 118.904 54.8283C118.96 54.9115 118.987 54.9983 118.987 55.0909C118.987 55.2223 118.94 55.336 118.847 55.4333C118.754 55.5306 118.63 55.5845 118.476 55.5963C118.539 55.6232 118.589 55.6549 118.628 55.6912C118.7 55.7616 118.789 55.88 118.893 56.0465L119.111 56.3971H118.758L118.6 56.1145C118.475 55.8929 118.375 55.7534 118.298 55.6983C118.245 55.6572 118.167 55.6361 118.067 55.6361H117.897V56.3971H117.608L117.607 56.3959ZM117.897 55.3887H118.247C118.415 55.3887 118.528 55.3641 118.589 55.3137C118.65 55.2633 118.681 55.1976 118.681 55.1156C118.681 55.0628 118.666 55.0147 118.636 54.9737C118.607 54.9315 118.566 54.901 118.514 54.8799C118.462 54.86 118.366 54.8494 118.225 54.8494H117.897V55.3899V55.3887Z" fill="#2B2A29"/>
<path fill-rule="evenodd" clip-rule="evenodd" d="M79.1267 18.8174C79.584 18.3602 79.7224 18.2593 80.2464 18.0061C80.5958 17.8372 81.0191 17.6813 81.2641 17.6321C81.4951 17.5852 81.6979 17.5336 81.7155 17.516C81.7624 17.4691 81.5772 16.6519 81.2981 15.6694C80.8409 14.0666 80.1702 12.4474 79.3847 11.0428C78.9239 10.2198 78.4221 9.42133 78.3658 9.42133C78.3447 9.42133 78.2087 9.50692 78.0621 9.6101C77.7151 9.85632 77.1089 10.1342 76.6423 10.2596C76.1358 10.3956 75.0888 10.3945 74.587 10.2573C73.0522 9.83638 71.9126 8.71786 71.4858 7.21008C71.3217 6.62971 71.3076 5.62843 71.4565 5.07737C71.5796 4.62363 71.8868 3.96002 72.1365 3.6118L72.3218 3.35269L72.1811 3.24599C71.5667 2.7817 69.7412 1.80035 68.5805 1.30909C67.204 0.726381 64.4616 -0.0884774 64.2072 0.00883668C64.158 0.027596 64.1204 0.113185 64.1204 0.209327C64.1204 0.471958 63.9035 1.11681 63.6456 1.61745C63.4674 1.96333 63.2857 2.20133 62.8941 2.59411C62.4567 3.03378 62.2938 3.15454 61.8342 3.37965C61.0814 3.74898 60.6875 3.84278 59.8902 3.84278C59.0929 3.84278 58.699 3.74898 57.9463 3.37965C57.4878 3.15454 57.3214 3.03143 56.884 2.59411C56.1899 1.90001 55.8593 1.25282 55.6318 0.144842C55.5896 -0.0591659 55.5486 -0.056821 54.4864 0.2105C52.8801 0.614998 51.1988 1.24461 49.7696 1.97505C49.0813 2.32679 47.8924 3.02206 47.5982 3.24482L47.4563 3.35152L47.6415 3.61063C47.8913 3.95885 48.1996 4.62129 48.3216 5.0762C48.4705 5.62843 48.4564 6.62854 48.2923 7.2089C47.8713 8.69441 46.7563 9.80942 45.2685 10.2327C44.694 10.3956 43.6939 10.4085 43.1358 10.2608C42.6832 10.1401 42.0208 9.83287 41.669 9.58079C41.3654 9.36271 41.4287 9.31699 40.9386 10.1072C39.8869 11.8026 39.0322 13.7325 38.4788 15.6705C38.2161 16.5886 38.018 17.4738 38.0649 17.5207C38.0801 17.5359 38.2818 17.5863 38.5128 17.6332C38.7578 17.6825 39.1811 17.8384 39.5305 18.0072C40.0546 18.2605 40.1929 18.3613 40.6502 18.8186C41.0898 19.2583 41.2141 19.4259 41.4381 19.8832C41.8074 20.6359 41.9012 21.0298 41.9012 21.8271C41.9012 22.6244 41.8074 23.0183 41.4381 23.7711C41.2129 24.2307 41.091 24.3936 40.6525 24.831C40.2574 25.2249 40.0241 25.4031 39.6759 25.5813C39.16 25.8451 38.7438 25.9917 38.3463 26.0503L38.0754 26.0902L38.0907 26.334C38.127 26.9039 38.6652 28.7388 39.174 30.0308C39.6723 31.2971 40.7956 33.452 41.3032 34.1168L41.4111 34.2587L41.6702 34.0734C42.5742 33.4239 43.8334 33.1355 44.8898 33.336C45.8301 33.5142 46.4292 33.8413 47.3039 34.6526C48.8586 36.0948 50.1365 37.0046 51.7768 37.837C57.3483 40.6638 64.0876 40.3754 69.352 37.0843C70.4259 36.4125 71.3287 35.7102 72.4766 34.6526C73.3629 33.8354 73.9503 33.5142 74.8871 33.3371C75.9306 33.139 77.1793 33.418 78.061 34.0453C78.2075 34.1497 78.3447 34.2341 78.367 34.2341C78.462 34.2341 79.3307 32.7345 79.8724 31.6324C80.4903 30.3755 80.8972 29.3543 81.2383 28.2018C81.4975 27.3248 81.7437 26.2344 81.705 26.1347C81.6886 26.0925 81.6006 26.0573 81.508 26.0573C81.2465 26.0573 80.6005 25.8393 80.0987 25.5825C79.7528 25.4043 79.516 25.2214 79.1221 24.831C78.6824 24.3936 78.5616 24.2307 78.3353 23.7711C77.966 23.0183 77.8722 22.6244 77.8722 21.8271C77.8722 21.0298 77.966 20.6359 78.3353 19.8832C78.5604 19.4248 78.6835 19.2583 79.1232 18.8186L79.1267 18.8174ZM75.4171 23.6749C75.0548 26.5674 73.8917 29.3332 72.0838 31.6007C71.5269 32.2995 70.3638 33.4626 69.665 34.0195C67.884 35.4394 65.5344 36.5802 63.4029 37.0597C61.099 37.5791 58.6779 37.5791 56.3787 37.0597C54.2308 36.5743 51.9046 35.4464 50.1143 34.0195C49.4155 33.4626 48.2524 32.2995 47.6955 31.6007C45.8875 29.3332 44.7268 26.5721 44.3622 23.6749C44.2402 22.7065 44.2402 20.9466 44.3622 19.977C45.2122 13.2283 50.1952 7.83031 56.802 6.50191C58.4035 6.17949 59.8808 6.11148 61.5762 6.27915C64.1685 6.53709 66.9742 7.62513 69.1069 9.20091C72.6301 11.8026 74.8695 15.6272 75.4171 19.977C75.5378 20.9407 75.5378 22.7029 75.4171 23.6749Z" fill="#2B2A29"/>
<path fill-rule="evenodd" clip-rule="evenodd" d="M54.6872 12.1355V14.1076H56.0027H57.317V13.451V12.7932H59.8906H62.463V16.0234V19.2535H63.7785H65.0928V14.7079V10.1634H59.8906H54.6872V12.1355Z" fill="#E32329"/>
<path fill-rule="evenodd" clip-rule="evenodd" d="M49.5412 19.2254V23.1414H51.4852H53.4291V21.8271V20.5116H52.8007H52.1722V19.2535V17.9955H56.6886H61.2049V16.6518V15.3082H55.3731H49.5412V19.2254Z" fill="#E32329"/>
<path fill-rule="evenodd" clip-rule="evenodd" d="M66.3508 16.6518V17.9955H68.2947H70.2387V16.6518V15.3082H68.2947H66.3508V16.6518Z" fill="#E32329"/>
<path fill-rule="evenodd" clip-rule="evenodd" d="M54.6872 21.8271V24.457H56.0027H57.317V21.8271V19.1961H56.0027H54.6872V21.8271Z" fill="#E32329"/>
<path fill-rule="evenodd" clip-rule="evenodd" d="M58.5751 21.8271V23.1414H63.0926H67.6089V24.3995V25.6575H66.9804H66.3508V27.0012V28.3448H68.2948H70.2387V24.4276V20.5116H64.4069H58.5751V21.8271Z" fill="#E32329"/>
<path fill-rule="evenodd" clip-rule="evenodd" d="M62.4626 28.9451V33.4907H63.7781H65.0924V28.9451V24.3995H63.7781H62.4626V28.9451Z" fill="#E32329"/>
<path fill-rule="evenodd" clip-rule="evenodd" d="M49.5412 27.0011V28.3448H55.3731H61.2049V27.0011V25.6575H55.3731H49.5412V27.0011Z" fill="#E32329"/>
<path fill-rule="evenodd" clip-rule="evenodd" d="M54.6872 31.5174V33.4907H56.0027H57.317V31.5174V29.5454H56.0027H54.6872V31.5174Z" fill="#E32329"/>
<path fill-rule="evenodd" clip-rule="evenodd" d="M43.7291 36.4371C43.6975 36.5203 44.4056 39.1185 44.5194 39.3354C44.5487 39.3905 44.6202 39.435 44.68 39.435C44.7879 39.435 46.8127 37.3844 46.8408 37.2461C46.849 37.2074 46.8326 37.1429 46.8057 37.1007C46.7529 37.0198 44.1911 36.3515 43.9226 36.3491C43.8311 36.3491 43.7491 36.3855 43.7291 36.4359V36.4371Z" fill="#E32329"/>
<path fill-rule="evenodd" clip-rule="evenodd" d="M74.3339 36.6927C73.1439 36.9952 72.9305 37.0773 72.927 37.2274C72.9246 37.3493 74.987 39.4363 75.1101 39.4363C75.164 39.4363 75.232 39.3917 75.2613 39.3366C75.3751 39.1185 76.0832 36.5204 76.0504 36.4383C75.9965 36.2976 75.7385 36.3351 74.3328 36.6927H74.3339Z" fill="#E32329"/>
<path fill-rule="evenodd" clip-rule="evenodd" d="M48.7471 40.0882C48.4352 40.2605 48.3637 40.692 48.6005 40.9734C48.7728 41.1785 50.8352 42.2384 51.0603 42.2384C51.2444 42.2384 51.4273 42.1458 51.5551 41.9887C51.6864 41.8269 51.6864 41.4294 51.5563 41.2747C51.4203 41.1129 49.2113 40.0084 49.0284 40.0108C48.9487 40.0108 48.8209 40.0471 48.7459 40.0882H48.7471Z" fill="#E32329"/>
<path fill-rule="evenodd" clip-rule="evenodd" d="M69.4165 40.6029C68.7916 40.9241 68.2452 41.236 68.2019 41.2946C68.0916 41.4447 68.1045 41.841 68.2253 41.9887C68.3519 42.1458 68.536 42.2385 68.7201 42.2385C68.9464 42.2385 71.0075 41.1786 71.1799 40.9734C71.3464 40.7752 71.3663 40.5396 71.2385 40.2933C71.0158 39.8619 70.7777 39.9017 69.4165 40.6029Z" fill="#E32329"/>
<path fill-rule="evenodd" clip-rule="evenodd" d="M55.1221 42.4953C54.8818 42.6242 54.8056 42.7497 54.8044 43.0287C54.8009 43.5188 55.0354 43.6232 56.6745 43.867C57.548 43.9972 57.8645 43.9843 58.0334 43.8155C58.4261 43.4227 58.2022 42.8564 57.6253 42.7837C57.3451 42.7485 55.699 42.4859 55.4317 42.4331C55.3531 42.4179 55.2136 42.4449 55.1221 42.4941V42.4953Z" fill="#E32329"/>
<path fill-rule="evenodd" clip-rule="evenodd" d="M63.9773 42.4976C63.7885 42.5398 63.248 42.6289 62.7767 42.6969C62.3053 42.7649 61.8657 42.854 61.8 42.8962C61.6324 43.0029 61.528 43.2843 61.5714 43.5152C61.6113 43.7263 61.7273 43.8588 61.9489 43.942C62.1154 44.0042 62.9901 43.9092 63.9996 43.7181C64.5553 43.6126 64.6878 43.5668 64.8203 43.4343C65.1204 43.1342 65.002 42.6171 64.5975 42.4636C64.4298 42.3991 64.4169 42.4002 63.9773 42.4976Z" fill="#E32329"/>
</svg>
